<?xml version="1.0" encoding="UTF-8" standalone="no"?>
<svg
   width="20.000013"
   height="20.048851"
   clip-rule="evenodd"
   fill-rule="evenodd"
   image-rendering="optimizeQuality"
   shape-rendering="geometricPrecision"
   text-rendering="geometricPrecision"
   viewBox="0 0 20.000013 21.263895"
   version="1.1"
   id="svg8"
   sodipodi:docname="drapeau-france-20px.svg"
   inkscape:version="1.3.2 (091e20e, 2023-11-25, custom)"
   xmlns:inkscape="http://www.inkscape.org/namespaces/inkscape"
   xmlns:sodipodi="http://sodipodi.sourceforge.net/DTD/sodipodi-0.dtd"
   xmlns="http://www.w3.org/2000/svg"
   xmlns:svg="http://www.w3.org/2000/svg">
  <sodipodi:namedview
     id="namedview8"
     pagecolor="#ffffff"
     bordercolor="#000000"
     borderopacity="0.25"
     inkscape:showpageshadow="2"
     inkscape:pageopacity="0.0"
     inkscape:pagecheckerboard="0"
     inkscape:deskcolor="#d1d1d1"
     inkscape:lockguides="false"
     inkscape:zoom="27.266037"
     inkscape:cx="19.859872"
     inkscape:cy="10.507577"
     inkscape:window-width="1920"
     inkscape:window-height="1000"
     inkscape:window-x="-11"
     inkscape:window-y="-11"
     inkscape:window-maximized="1"
     inkscape:current-layer="layer2" />
  <defs
     id="defs1">
    <style
       type="text/css"
       id="style1">.fil1 {fill:white} .fil2 {fill:#041E42} .fil3 {fill:#C8102E} .fil4 {fill:#1F1A17;fill-rule:nonzero} .fil5 {fill:#71625B;fill-rule:nonzero} .fil0 {fill:#957F66;fill-rule:nonzero} .fil6 {fill:#C0A062;fill-rule:nonzero}</style>
  </defs>
  <g
     inkscape:groupmode="layer"
     id="layer2"
     inkscape:label="calque 1"
     style="display:inline;stroke-width:149.458"
     transform="matrix(0.00669084,0,0,0.00669084,-2.9024483,0.57061944)">
    <polygon
       class="fil0"
       points="877.57,244.71 917.48,270.72 912.84,277.86 872.92,251.86 "
       id="polygon1"
       transform="translate(-2.3752083e-6)"
       style="stroke-width:149.458" />
    <polygon
       class="fil0"
       points="573.04,1296.2 577.21,1303.6 526.47,1332.3 522.3,1324.8 "
       id="polygon2"
       transform="translate(194.51744,19.363728)"
       style="stroke-width:149.458" />
    <path
       class="fil1"
       d="m 580.66,1297.7 c 204.3,-344.3 310.77,-686.21 334.5,-1023.4 271.7,-24.322 680.19,-162.4 995.49,-172.76 162.13,-5.3261 483.41,-42.108 526.02,-7.96 9.7346,7.8012 10.583,16.761 5.2485,26.302 l 7.3636,29.95 c -0.5685,27.573 -4.6861,54.97 -11.379,81.703 -8.8582,35.377 -22.171,69.678 -38.067,102.46 l -3.0133,6.2182 -5.7273,5.6861 c 62.304,-1.3224 119.06,-4.8921 148.05,-7.6218 107.64,-10.133 263.54,-48.466 424.68,-72.007 329.97,-48.204 657.88,-55.11 470.76,163.33 -258.4,240.48 -382.3,535.61 -414.15,868.13 -452.42,-70.876 -1082.3,128.32 -1277,-2.6546 -19.932,-25.621 95.573,-104.42 143.36,-156.64 -507.6,0.079 -957.93,42.206 -1306.2,159.29 z"
       id="path2"
       transform="translate(-2.3752083e-6)"
       style="stroke-width:149.458" />
    <path
       class="fil2"
       d="m 1039.9392,282.02515 c 33.4277,-4.8823 66.8619,-10.26765 100.3155,-22.59979 73.397,-27.06083 146.9543,-53.29229 220.3818,-78.66844 72.7007,-25.12405 145.1817,-49.01438 217.9646,-71.22841 34.4314,-10.507994 67.4966,-27.698761 100.5077,-44.942102 37.5833,-10.876192 74.7279,-20.718317 111.1708,-29.171489 -1.5027,87.273971 -7.5909,199.457181 -26.9961,285.497371 -20.8715,92.54224 -50.9077,186.31701 -87.1045,281.24524 -36.0503,94.54359 -63.478,188.09321 -82.5044,280.16398 -16.2225,78.52262 -26.068,155.97709 -28.6619,232.39079 -323.1574,60.8373 -608.95999,142.3929 -840.85225,253.849 0.10361,-3.888 0.22287,-7.7782 0.36133,-11.6707 154.45643,-362.18638 214.9059,-710.00201 195.98788,-1043.11822 37.58203,-8.25615 77.57641,-19.10285 119.42624,-31.78401 z"
       id="path3"
       style="fill:#002654;fill-opacity:1;stroke-width:149.458" />
    <path
       class="fil3"
       d="m 3467.288,5.3836782 c 6.8001,8.2784768 15.8047,15.6654768 24.9012,22.9808578 16.6543,27.857562 8.3633,71.220013 -33.9096,134.615224 -227.7113,269.71979 -315.3415,577.57343 -307.1037,911.51374 -131.7668,-4.645 -275.4326,14.7093 -418.2332,42.0648 -87.8217,14.387 -175.7192,35.1041 -263.9784,56.8543 -38.3996,8.7446 -76.0874,17.3289 -112.7978,25.4069 3.4811,-177.4467 50.3939,-360.76168 128.6242,-547.71691 69.1257,-165.19698 114.552,-327.31097 126.6413,-484.63438 100.0476,-27.31134 227.5,-73.249911 359.9036,-109.215057 207.9294,-56.47711078 417.0152,-95.702422 495.9588,-51.8667138 z"
       id="path4"
       style="fill:#ed2939;fill-opacity:1;stroke-width:149.458" />
    <path
       class="fil4"
       d="m 708.35172,1350.1301 c 78.91194,-179.3802 134.4531,-355.28083 168.45525,-527.63318 34.99512,-177.41894 47.18403,-351.1147 38.53174,-521.02425 -0.48074,-8.80403 5.87278,-16.39481 14.43099,-17.64112 115.3933,-24.76061 254.6417,-74.18057 400.5248,-125.95147 189.3669,-67.20257 389.8292,-138.343714 566.6784,-165.7913008 44.3663,-6.8831672 102.5489,-18.0613712 163.5006,-29.7707872 156.1599,-29.993177 330.2937,-63.444652 369.1791,-39.359475 15.3477,9.502014 20.8583,21.204877 18.8707,34.37054 -2.3987,15.904405 -2.4047,24.210998 -1.0806,41.1168671 1.9869,25.4201579 1.0609,51.0347339 -2.1154,76.4820199 -4.1837,33.500026 -12.3036,66.761976 -22.8273,98.891096 53.4966,-8.0886 100.6487,-16.95574 125.927,-22.47501 l 0.3824,-0.0783 c 56.5525,-12.37913 127.168,-34.95415 204.9048,-59.80396 65.2783,-20.871162 135.5367,-43.33478 206.7326,-62.747332 162.4089,-44.282994 325.9272,-78.129584 429.5937,-70.624667 118.5659,8.581377 167.4504,64.078823 75.9744,201.535999 -0.3571,0.5368 -0.7425,1.0526 -1.1501,1.53564 l 6e-4,0.005 c -112.2542,133.22105 -189.9152,275.79036 -238.4457,426.19697 -48.6002,150.63672 -68.0514,309.22943 -63.8171,474.26762 0.251,9.3143 -7.0984,17.0699 -16.4132,17.3213 -0.4368,0.013 -0.8764,0 -1.3075,-0.018 -212.3277,-7.2142 -457.3599,48.8386 -678.8103,99.5036 -255.0871,58.3605 -479.4389,109.6863 -595.8994,50.3757 -1.6528,-0.8379 -3.1052,-1.9164 -4.345,-3.1635 l -0.033,0.033 c -26.5215,-26.6887 20.5047,-78.7368 67.5305,-130.7788 9.808,-10.8562 19.6253,-21.7187 28.6128,-32.0826 -235.6813,29.839 -457.4103,67.623 -660.1134,116.2188 -213.8811,51.2771 -406.15637,114.5293 -570.73635,193.113 -8.41663,4.004 -18.4898,0.4277 -22.49216,-7.9886 -2.18603,-4.5962 -2.10552,-9.693 -0.21679,-14.0185 l -0.0244,-0.01 z M 2428.8368,-7.2206508 C 2391.7209,33.172394 2305.6131,80.40979 2261.891,104.39392 c -7.9257,4.34597 -14.315,7.85276 -19.6656,10.96947 -49.141,28.61691 -75.1495,49.116 -83.9545,63.28784 -1.7001,2.73579 -0.8124,4.63151 1.8957,5.87336 11.4073,5.23572 32.0217,7.6133 58.0295,7.97919 51.3709,0.72374 120.8523,-6.64772 184.3607,-15.72551 11.5347,-33.64641 20.4669,-68.69462 24.883,-104.049314 3.3288,-26.660594 4.0648,-53.466948 1.3934,-79.9471568 z M 3473.9743,54.668294 c -7.5948,7.735632 -15.6993,14.455016 -24.229,20.37914 -17.4402,12.11143 -36.4679,20.75688 -56.3847,27.750876 -35.4663,12.45946 -74.0221,18.65614 -111.8308,24.73289 -26.2903,4.22367 -52.2178,8.39825 -76.3366,14.64575 -62.8745,93.24909 -112.3628,183.55301 -146.8431,270.54711 -34.723,87.61597 -54.2836,171.93961 -57.0148,252.59065 -2.415,71.33961 0.7032,154.01364 21.7613,226.35917 18.4475,63.3846 50.7394,118.84002 105.3798,151.39582 -2.356,-161.88211 17.9058,-317.67217 65.7666,-466.03287 49.7648,-154.24389 129.2988,-300.38572 244.1559,-436.88533 23.5755,-35.5947 34.6882,-63.703526 35.5685,-85.485506 z M 3098.6816,1044.6337 c -46.7759,-35.8 -75.6365,-88.68121 -92.8838,-147.94059 -21.6803,-74.49101 -24.9094,-159.08572 -22.4415,-231.95795 2.804,-82.79154 22.7941,-169.12378 58.2703,-258.63669 35.3796,-89.27246 86.1084,-181.6666 150.5112,-276.82638 l 0.011,0.009 c 1.1693,-1.72977 2.9489,-3.06973 5.1246,-3.65333 25.6612,-6.90056 53.3572,-11.35267 81.4615,-15.86799 36.8337,-5.91856 74.3992,-11.958026 108.6572,-23.990936 18.6143,-6.538464 36.2573,-14.517716 52.1073,-25.525676 11.1621,-7.751032 21.5292,-17.068654 30.8467,-28.544672 -10.0179,-24.5875986 -39.8216,-36.7240385 -82.7222,-39.8296768 -99.265,-7.1874792 -258.9474,26.0689388 -418.2654,69.5105488 -71.4106,19.469912 -140.895,41.687212 -205.4541,62.325782 -78.1136,24.97426 -149.0923,47.66864 -207.7491,60.52091 l -0.5105,0.11957 c -58.8049,12.84371 -233.8802,43.3931 -337.8693,41.92814 -16.0519,-0.22554 -30.6345,-1.2247 -43.1636,-3.1807 -23.4186,-3.64894 -23.5749,-13.57267 -32.7606,11.01037 -1.7829,4.77403 -3.4968,9.56293 -5.1378,14.36814 -16.2852,47.61785 -25.7211,96.49426 -30.6167,146.04998 -6.5885,66.65662 -4.9907,134.73039 -0.813,202.71374 5.1429,83.66462 5.6372,165.53182 -7.4099,241.54546 -10.1323,59.04506 -28.4188,114.54382 -58.9746,164.60325 -2.3085,3.7855 -4.6913,7.5434 -7.1424,11.2616 -11.5636,17.553 -13.6598,32.657 -26.394,48.7869 -1.9922,2.5223 -4.0568,5.0814 -6.1888,7.6695 -12.2175,14.8462 -26.5213,30.6777 -40.8208,46.5026 -34.027,37.6557 -68.0537,75.3145 -68.8163,83.1178 107.0668,50.4981 323.4518,1.0055 569.0812,-55.1892 207.308,-47.4277 435.081,-99.5306 640.0784,-100.8945 z m -1081.1859,-41.0704 c 3.8566,-5.90452 7.5275,-11.89984 11.0176,-17.97517 26.2956,-45.77222 42.4049,-96.24186 51.6042,-149.83428 12.7762,-74.44943 12.2723,-154.97867 7.2053,-237.40036 -4.2228,-68.71425 -5.8269,-137.65461 0.887,-205.57363 4.5527,-46.06672 12.9313,-91.58777 26.8962,-136.13776 2.7855,-8.89508 5.7957,-17.75043 9.0401,-26.55701 10.5329,-28.61046 -11.8464,-41.42404 5.4583,-69.2712 11.6282,-18.71833 41.4446,-43.14837 95.6237,-74.701586 3.6294,-2.113468 11.109,-6.218274 20.4231,-11.32551 46.5739,-25.549206 143.8575,-78.9200162 165.8136,-114.378027 2.4754,-3.999937 2.9814,-7.136156 0.3866,-8.741066 -27.5993,-17.089127 -194.959,15.058316 -345.0453,43.8860068 -60.4015,11.6033396 -118.0643,22.6815902 -164.6819,29.9145642 -173.7643,26.969904 -372.6815,97.562748 -560.61,164.251738 -141.4793,50.21032 -276.7783,98.22774 -391.71537,124.2535 7.41294,168.13632 -5.23768,339.8433 -39.79497,515.033 -31.9025,161.72064 -82.46128,326.40709 -153.12784,493.99449 157.69147,-71.1196 338.30048,-129.1648 537.09758,-176.8288 202.7326,-48.6013 424.7835,-86.4725 661.0321,-116.4505 6.573,-0.8324 13.1582,-1.6652 19.7486,-2.4836 15.8592,-1.9699 21.1914,-4.559 26.6389,-8.0551 4.2402,-2.7226 8.9719,-4.7285 16.0888,-15.6247 z"
       id="path5"
       style="stroke-width:149.458" />
    <path
       class="fil5"
       d="m 826.57615,225.39868 c 3.77028,-22.01888 21.61765,-35.40211 39.86032,-29.88875 18.24261,5.51265 29.97576,27.83412 26.20723,49.85288 L 507.92941,2490.1628 409.98812,3061.6482 c -3.77024,22.0189 -21.61764,35.4019 -39.86032,29.8884 -18.24261,-5.5125 -29.97574,-27.834 -26.20723,-49.8527 z"
       id="path6"
       style="stroke-width:149.457"
       sodipodi:nodetypes="cccccccc" />
    <path
       class="fil6"
       d="m 811.32,239.29 c -6.6679,0.52242 -12.498,-4.4594 -13.021,-11.127 -0.52242,-6.6679 4.4594,-12.498 11.127,-13.021 14.55,-1.1479 27.959,0.4497 40.316,4.5539 12.392,4.1152 23.519,10.709 33.499,19.546 4.9939,4.4194 5.4606,12.052 1.0412,17.046 -4.4194,4.9939 -12.052,5.4606 -17.046,1.0412 -7.5733,-6.7054 -15.907,-11.674 -25.07,-14.716 -9.1964,-3.0546 -19.448,-4.2218 -30.847,-3.3224 z"
       id="path7"
       transform="translate(-2.3752083e-6)"
       style="stroke-width:149.458" />
    <path
       class="fil6"
       d="m 660.41854,1333.2426 c -6.6679,0.3661 -12.371,-4.743 -12.737,-11.411 -0.36606,-6.6679 4.743,-12.371 11.411,-12.737 13.844,-0.7782 26.888,0.8194 39.127,4.7927 12.232,3.9721 23.607,10.331 34.12,19.069 5.1248,4.2618 5.8242,11.873 1.5624,16.998 -4.2618,5.1248 -11.873,5.8242 -16.998,1.5624 -8.0546,-6.6958 -16.779,-11.57 -26.166,-14.618 -9.3818,-3.0461 -19.491,-4.2642 -30.32,-3.6558 z"
       id="path8"
       style="stroke-width:149.458" />
  </g>
</svg>
